<svg xmlns="http://www.w3.org/2000/svg" viewBox="0 0 800 600">
<defs><linearGradient id="sky" x1="0" y1="0" x2="0" y2="1"><stop offset="0%" stop-color="#87ceeb"/><stop offset="100%" stop-color="#b8e6b8"/></linearGradient></defs><rect width="800" height="600" fill="url(#sky)"/><path d="M0,400 Q400,360 800,400 L800,600 L0,600 Z" fill="#6ab04c"/><ellipse cx="650" cy="120" rx="50" ry="50" fill="#ffe066"/><ellipse cx="650" cy="120" rx="38" ry="38" fill="#ffd93d"/>
<g transform="translate(400,480)">
  <rect x="-25" y="-380" width="50" height="380" fill="#f5f5f5"/>
  <g fill="#2c3e50">
    <rect x="-25" y="-350" width="50" height="6"/>
    <rect x="-25" y="-280" width="50" height="5"/>
    <rect x="-15" y="-220" width="40" height="6"/>
    <rect x="-25" y="-150" width="35" height="5"/>
    <rect x="-25" y="-80" width="45" height="6"/>
    <rect x="-15" y="-30" width="35" height="4"/>
  </g>
  <!-- liście brzozy - drobne -->
  <g fill="#6ab04c">
    <ellipse cx="-80" cy="-380" rx="40" ry="60"/>
    <ellipse cx="80" cy="-380" rx="40" ry="60"/>
    <ellipse cx="0" cy="-420" rx="50" ry="40"/>
    <ellipse cx="-50" cy="-330" rx="35" ry="40"/>
    <ellipse cx="50" cy="-330" rx="35" ry="40"/>
  </g>
</g>
<text x="400" y="565" text-anchor="middle" font-family="Comic Sans MS" font-size="24" font-weight="bold" fill="#5a3a26">brzoza</text>
</svg>