<svg xmlns="http://www.w3.org/2000/svg" viewBox="0 0 800 600">
<defs><linearGradient id="sky" x1="0" y1="0" x2="0" y2="1"><stop offset="0%" stop-color="#87ceeb"/><stop offset="100%" stop-color="#b8e6b8"/></linearGradient></defs><rect width="800" height="600" fill="url(#sky)"/><path d="M0,400 Q400,360 800,400 L800,600 L0,600 Z" fill="#6ab04c"/><ellipse cx="650" cy="120" rx="50" ry="50" fill="#ffe066"/><ellipse cx="650" cy="120" rx="38" ry="38" fill="#ffd93d"/>
<rect x="377.5" y="480" width="45.0" height="75.0" fill="#8b5a3c"/><circle cx="400" cy="405.0" r="120.0" fill="#4d8c2f"/><circle cx="325.0" cy="435.0" r="82.5" fill="#6ab04c"/><circle cx="475.0" cy="435.0" r="82.5" fill="#6ab04c"/><circle cx="400" cy="330.0" r="82.5" fill="#6ab04c"/>
<!-- bukwie - małe trójkątne orzeszki -->
<g transform="translate(330,420)">
  <polygon points="-8,0 8,0 0,15" fill="#5a3a26"/>
  <polygon points="-7,-1 7,-1 0,12" fill="#3d2814"/>
</g>
<g transform="translate(470,440)">
  <polygon points="-8,0 8,0 0,15" fill="#5a3a26"/>
  <polygon points="-7,-1 7,-1 0,12" fill="#3d2814"/>
</g>
<g transform="translate(380,460)">
  <polygon points="-8,0 8,0 0,15" fill="#5a3a26"/>
  <polygon points="-7,-1 7,-1 0,12" fill="#3d2814"/>
</g>
<g transform="translate(440,400)">
  <polygon points="-8,0 8,0 0,15" fill="#5a3a26"/>
</g>
<text x="400" y="565" text-anchor="middle" font-family="Comic Sans MS" font-size="24" font-weight="bold" fill="#5a3a26">buk z bukwiem</text>
</svg>