<svg xmlns="http://www.w3.org/2000/svg" viewBox="0 0 800 600">
<defs><linearGradient id="sky" x1="0" y1="0" x2="0" y2="1"><stop offset="0%" stop-color="#87ceeb"/><stop offset="100%" stop-color="#b8e6b8"/></linearGradient></defs><rect width="800" height="600" fill="url(#sky)"/><path d="M0,400 Q400,360 800,400 L800,600 L0,600 Z" fill="#6ab04c"/><ellipse cx="650" cy="120" rx="50" ry="50" fill="#ffe066"/><ellipse cx="650" cy="120" rx="38" ry="38" fill="#ffd93d"/>
<g transform="translate(380,250)">
  <!-- pień drzewa -->
  <rect x="-40" y="-50" width="80" height="400" fill="#8b5a3c"/>
  <line x1="-30" y1="-30" x2="-30" y2="350" stroke="#5a3a26" stroke-width="2"/>
  <line x1="0" y1="-50" x2="0" y2="340" stroke="#5a3a26" stroke-width="2"/>
  <line x1="25" y1="-40" x2="25" y2="340" stroke="#5a3a26" stroke-width="2"/>
  <!-- otwór -->
  <ellipse cx="-15" cy="60" rx="12" ry="15" fill="#2c3e50"/>
</g>
<g transform="translate(440,180)">
  <!-- dzięcioł czarno-biały z czerwonym łebkiem -->
  <ellipse cx="0" cy="0" rx="35" ry="50" fill="#ffffff"/>
  <path d="M-30,-20 L-30,30 L30,30 L30,-20 Z" fill="#2c3e50"/>
  <ellipse cx="0" cy="0" rx="20" ry="35" fill="#ffffff"/>
  <circle cx="0" cy="-50" r="25" fill="#e74c3c"/>
  <circle cx="-8" cy="-55" r="3" fill="#2c3e50"/>
  <polygon points="-25,-50 -55,-45 -25,-40" fill="#ffd93d"/>
  <polygon points="0,40 -10,80 10,80" fill="#2c3e50"/>
</g>
<text x="400" y="565" text-anchor="middle" font-family="Comic Sans MS" font-size="24" font-weight="bold" fill="#5a3a26">dzięcioł</text>
</svg>