<svg xmlns="http://www.w3.org/2000/svg" viewBox="0 0 800 600">
<defs><linearGradient id="sky" x1="0" y1="0" x2="0" y2="1"><stop offset="0%" stop-color="#87ceeb"/><stop offset="100%" stop-color="#b8e6b8"/></linearGradient></defs><rect width="800" height="600" fill="url(#sky)"/><path d="M0,400 Q400,360 800,400 L800,600 L0,600 Z" fill="#6ab04c"/><ellipse cx="650" cy="120" rx="50" ry="50" fill="#ffe066"/><ellipse cx="650" cy="120" rx="38" ry="38" fill="#ffd93d"/><rect x="141.0" y="380" width="18.0" height="30.0" fill="#8b5a3c"/><circle cx="150" cy="350.0" r="48.0" fill="#4d8c2f"/><circle cx="120.0" cy="362.0" r="33.0" fill="#6ab04c"/><circle cx="180.0" cy="362.0" r="33.0" fill="#6ab04c"/><circle cx="150" cy="320.0" r="33.0" fill="#6ab04c"/>
<g transform="translate(450,400)">
  <ellipse cx="0" cy="0" rx="130" ry="65" fill="#3d2814"/>
  <!-- włosie na grzbiecie -->
  <g stroke="#2c3e50" stroke-width="3">
    <line x1="-100" y1="-50" x2="-100" y2="-70"/>
    <line x1="-80" y1="-58" x2="-78" y2="-80"/>
    <line x1="-60" y1="-62" x2="-58" y2="-85"/>
    <line x1="-40" y1="-65" x2="-38" y2="-90"/>
    <line x1="-20" y1="-65" x2="-18" y2="-90"/>
    <line x1="0" y1="-65" x2="2" y2="-88"/>
    <line x1="20" y1="-62" x2="22" y2="-82"/>
  </g>
  <!-- nogi -->
  <rect x="-90" y="50" width="14" height="50" fill="#3d2814"/>
  <rect x="-50" y="50" width="14" height="50" fill="#3d2814"/>
  <rect x="40" y="50" width="14" height="50" fill="#3d2814"/>
  <rect x="80" y="50" width="14" height="50" fill="#3d2814"/>
  <!-- ryj -->
  <ellipse cx="-130" cy="0" rx="35" ry="25" fill="#6b4423"/>
  <ellipse cx="-150" cy="0" rx="15" ry="12" fill="#3d2814"/>
  <circle cx="-155" cy="-3" r="2" fill="#2c3e50"/>
  <circle cx="-145" cy="-3" r="2" fill="#2c3e50"/>
  <!-- kły -->
  <polygon points="-145,5 -148,15 -142,15" fill="#ffffff"/>
  <polygon points="-128,5 -125,15 -131,15" fill="#ffffff"/>
  <!-- oko -->
  <circle cx="-90" cy="-20" r="4" fill="#2c3e50"/>
  <!-- ucho -->
  <polygon points="-80,-50 -65,-70 -55,-50" fill="#3d2814"/>
</g>
<text x="400" y="565" text-anchor="middle" font-family="Comic Sans MS" font-size="24" font-weight="bold" fill="#5a3a26">dzik</text>
</svg>