<svg xmlns="http://www.w3.org/2000/svg" viewBox="0 0 800 600">
<defs><linearGradient id="sky" x1="0" y1="0" x2="0" y2="1"><stop offset="0%" stop-color="#87ceeb"/><stop offset="100%" stop-color="#b8e6b8"/></linearGradient></defs><rect width="800" height="600" fill="url(#sky)"/><path d="M0,400 Q400,360 800,400 L800,600 L0,600 Z" fill="#6ab04c"/><ellipse cx="650" cy="120" rx="50" ry="50" fill="#ffe066"/><ellipse cx="650" cy="120" rx="38" ry="38" fill="#ffd93d"/><rect x="114.0" y="380" width="12.0" height="24.0" fill="#5a3a26"/><polygon points="120,272.0 66.0,380 174.0,380" fill="#4d8c2f"/><polygon points="120,248.0 75.0,356.0 165.0,356.0" fill="#6ab04c"/><polygon points="120,230.0 87.0,332.0 153.0,332.0" fill="#4d8c2f"/><rect x="691.0" y="380" width="18.0" height="30.0" fill="#8b5a3c"/><circle cx="700" cy="350.0" r="48.0" fill="#4d8c2f"/><circle cx="670.0" cy="362.0" r="33.0" fill="#6ab04c"/><circle cx="730.0" cy="362.0" r="33.0" fill="#6ab04c"/><circle cx="700" cy="320.0" r="33.0" fill="#6ab04c"/>
<g transform="translate(400,400)">
  <!-- dziecko -->
  <circle cx="0" cy="-50" r="35" fill="#ffe066"/>
  <circle cx="-12" cy="-55" r="3" fill="#2c3e50"/>
  <circle cx="12" cy="-55" r="3" fill="#2c3e50"/>
  <path d="M-10,-40 Q0,-35 10,-40" stroke="#2c3e50" stroke-width="2" fill="none"/>
  <!-- ciało (T-shirt) -->
  <rect x="-25" y="-15" width="50" height="60" fill="#4d8c2f" rx="6"/>
  <!-- ramiona -->
  <rect x="-50" y="-10" width="20" height="40" fill="#ffe066" rx="6"/>
  <rect x="30" y="-10" width="20" height="40" fill="#ffe066" rx="6"/>
  <!-- nogi -->
  <rect x="-22" y="40" width="18" height="40" fill="#3498db"/>
  <rect x="4" y="40" width="18" height="40" fill="#3498db"/>
  <!-- worek na śmieci -->
  <path d="M40,30 L60,30 L70,80 L30,80 Z" fill="#2c3e50"/>
  <ellipse cx="50" cy="30" rx="12" ry="3" fill="#7f8c8d"/>
</g>
<!-- znak Recycle obok -->
<g transform="translate(120,200)">
  <circle cx="0" cy="0" r="40" fill="#4d8c2f"/>
  <text x="0" y="10" text-anchor="middle" font-size="40" fill="#ffffff">♻</text>
</g>
<text x="400" y="565" text-anchor="middle" font-family="Comic Sans MS" font-size="24" font-weight="bold" fill="#5a3a26">dbamy o las</text>
</svg>