<svg xmlns="http://www.w3.org/2000/svg" viewBox="0 0 800 600">
<defs><linearGradient id="sky" x1="0" y1="0" x2="0" y2="1"><stop offset="0%" stop-color="#87ceeb"/><stop offset="100%" stop-color="#b8e6b8"/></linearGradient></defs><rect width="800" height="600" fill="url(#sky)"/><path d="M0,400 Q400,360 800,400 L800,600 L0,600 Z" fill="#6ab04c"/><ellipse cx="650" cy="120" rx="50" ry="50" fill="#ffe066"/><ellipse cx="650" cy="120" rx="38" ry="38" fill="#ffd93d"/>
<g transform="translate(400,420)">
  <!-- koszyk -->
  <path d="M-150,0 L-130,100 L130,100 L150,0 Z" fill="#6b4423"/>
  <g stroke="#5a3a26" stroke-width="2" fill="none">
    <line x1="-140" y1="40" x2="140" y2="40"/>
    <line x1="-130" y1="80" x2="130" y2="80"/>
    <line x1="-100" y1="0" x2="-92" y2="100"/>
    <line x1="-50" y1="0" x2="-45" y2="100"/>
    <line x1="0" y1="0" x2="0" y2="100"/>
    <line x1="50" y1="0" x2="45" y2="100"/>
    <line x1="100" y1="0" x2="92" y2="100"/>
  </g>
  <!-- ucho koszyka -->
  <path d="M-100,-5 Q0,-90 100,-5" stroke="#8b5a3c" stroke-width="8" fill="none"/>
  <!-- grzyby w koszyku -->
  <g transform="translate(-80,-10)">
    <ellipse cx="0" cy="0" rx="30" ry="15" fill="#3d2814"/>
    <rect x="-7" y="0" width="14" height="20" fill="#ffe066"/>
  </g>
  <g transform="translate(-20,-15)">
    <ellipse cx="0" cy="0" rx="35" ry="18" fill="#e74c3c"/>
    <circle cx="-10" cy="-5" r="5" fill="#ffffff"/>
    <circle cx="10" cy="-3" r="4" fill="#ffffff"/>
    <rect x="-7" y="0" width="14" height="18" fill="#ffffff"/>
  </g>
  <g transform="translate(60,-10)">
    <ellipse cx="0" cy="0" rx="32" ry="16" fill="#6b4423"/>
    <rect x="-6" y="0" width="12" height="18" fill="#ffe066"/>
  </g>
</g>
<text x="400" y="565" text-anchor="middle" font-family="Comic Sans MS" font-size="24" font-weight="bold" fill="#5a3a26">grzybobranie</text>
</svg>