<svg xmlns="http://www.w3.org/2000/svg" viewBox="0 0 800 600">
<defs><linearGradient id="sky" x1="0" y1="0" x2="0" y2="1"><stop offset="0%" stop-color="#87ceeb"/><stop offset="100%" stop-color="#b8e6b8"/></linearGradient></defs><rect width="800" height="600" fill="url(#sky)"/><path d="M0,400 Q400,360 800,400 L800,600 L0,600 Z" fill="#6ab04c"/><ellipse cx="650" cy="120" rx="50" ry="50" fill="#ffe066"/><ellipse cx="650" cy="120" rx="38" ry="38" fill="#ffd93d"/>
<g transform="translate(400,420)">
  <!-- ciało -->
  <ellipse cx="0" cy="0" rx="130" ry="80" fill="#3d2814"/>
  <!-- kolce -->
  <g fill="#2c3e50">
    <polygon points="-100,-65 -90,-100 -80,-65"/>
    <polygon points="-70,-75 -60,-110 -50,-75"/>
    <polygon points="-40,-78 -30,-115 -20,-78"/>
    <polygon points="-10,-80 0,-118 10,-80"/>
    <polygon points="20,-78 30,-115 40,-78"/>
    <polygon points="50,-75 60,-110 70,-75"/>
    <polygon points="80,-65 90,-100 100,-65"/>
    <polygon points="-110,-30 -125,-60 -100,-40"/>
    <polygon points="100,-30 125,-60 110,-40"/>
  </g>
  <!-- mordka -->
  <ellipse cx="-110" cy="20" rx="40" ry="30" fill="#6b4423"/>
  <circle cx="-130" cy="10" r="4" fill="#2c3e50"/>
  <circle cx="-140" cy="25" r="6" fill="#2c3e50"/>
  <!-- nogi -->
  <ellipse cx="-50" cy="70" rx="15" ry="10" fill="#2c3e50"/>
  <ellipse cx="50" cy="70" rx="15" ry="10" fill="#2c3e50"/>
</g>
<text x="400" y="565" text-anchor="middle" font-family="Comic Sans MS" font-size="24" font-weight="bold" fill="#5a3a26">jeż</text>
</svg>