<svg xmlns="http://www.w3.org/2000/svg" viewBox="0 0 800 600">
<defs><linearGradient id="sky" x1="0" y1="0" x2="0" y2="1"><stop offset="0%" stop-color="#87ceeb"/><stop offset="100%" stop-color="#b8e6b8"/></linearGradient></defs><rect width="800" height="600" fill="url(#sky)"/><path d="M0,400 Q400,360 800,400 L800,600 L0,600 Z" fill="#6ab04c"/><ellipse cx="650" cy="120" rx="50" ry="50" fill="#ffe066"/><ellipse cx="650" cy="120" rx="38" ry="38" fill="#ffd93d"/>
<g transform="translate(330,330)">
  <ellipse cx="0" cy="40" rx="120" ry="55" fill="#ffe066"/>
  <rect x="-90" y="80" width="14" height="60" fill="#6b4423"/>
  <rect x="-50" y="80" width="14" height="60" fill="#6b4423"/>
  <rect x="40" y="80" width="14" height="60" fill="#6b4423"/>
  <rect x="80" y="80" width="14" height="60" fill="#6b4423"/>
  <path d="M85,30 L120,-20 L155,-30 L150,30 Z" fill="#ffe066"/>
  <ellipse cx="155" cy="-10" rx="32" ry="25" fill="#ffe066"/>
  <circle cx="165" cy="-15" r="3" fill="#2c3e50"/>
  <ellipse cx="145" cy="-30" rx="6" ry="14" fill="#6b4423"/>
</g>
<g transform="translate(540,400)">
  <ellipse cx="0" cy="20" rx="60" ry="30" fill="#ffe066"/>
  <rect x="-45" y="40" width="9" height="35" fill="#6b4423"/>
  <rect x="-25" y="40" width="9" height="35" fill="#6b4423"/>
  <rect x="20" y="40" width="9" height="35" fill="#6b4423"/>
  <rect x="40" y="40" width="9" height="35" fill="#6b4423"/>
  <ellipse cx="65" cy="-5" rx="20" ry="15" fill="#ffe066"/>
  <circle cx="71" cy="-8" r="2" fill="#2c3e50"/>
  <ellipse cx="60" cy="-18" rx="3" ry="8" fill="#6b4423"/>
  <!-- kropki młodego -->
  <circle cx="-20" cy="10" r="3" fill="#ffffff"/>
  <circle cx="0" cy="15" r="3" fill="#ffffff"/>
  <circle cx="20" cy="10" r="3" fill="#ffffff"/>
</g>
<text x="400" y="565" text-anchor="middle" font-family="Comic Sans MS" font-size="24" font-weight="bold" fill="#5a3a26">łania z jelonkiem</text>
</svg>