<svg xmlns="http://www.w3.org/2000/svg" viewBox="0 0 800 600">
<defs><linearGradient id="sky" x1="0" y1="0" x2="0" y2="1"><stop offset="0%" stop-color="#87ceeb"/><stop offset="100%" stop-color="#b8e6b8"/></linearGradient></defs><rect width="800" height="600" fill="url(#sky)"/><path d="M0,400 Q400,360 800,400 L800,600 L0,600 Z" fill="#6ab04c"/><ellipse cx="650" cy="120" rx="50" ry="50" fill="#ffe066"/><ellipse cx="650" cy="120" rx="38" ry="38" fill="#ffd93d"/><rect x="113.0" y="380" width="14.0" height="28.0" fill="#5a3a26"/><polygon points="120,254.0 57.00000000000001,380 183.0,380" fill="#4d8c2f"/><polygon points="120,226.0 67.5,352.0 172.5,352.0" fill="#6ab04c"/><polygon points="120,205.0 81.5,324.0 158.5,324.0" fill="#4d8c2f"/><rect x="693.0" y="380" width="14.0" height="28.0" fill="#5a3a26"/><polygon points="700,254.0 637.0,380 763.0,380" fill="#4d8c2f"/><polygon points="700,226.0 647.5,352.0 752.5,352.0" fill="#6ab04c"/><polygon points="700,205.0 661.5,324.0 738.5,324.0" fill="#4d8c2f"/>
<g transform="translate(400,420)">
  <!-- mrowisko -->
  <ellipse cx="0" cy="40" rx="180" ry="20" fill="#7d4f2a"/>
  <path d="M-160,40 L0,-150 L160,40 Z" fill="#5a3a26"/>
  <path d="M-130,40 L-20,-100 L100,40 Z" fill="#8b5a3c"/>
  <path d="M-80,40 L20,-60 L120,40 Z" fill="#7d4f2a"/>
  <!-- patyczki -->
  <line x1="-100" y1="0" x2="-80" y2="-20" stroke="#3d2814" stroke-width="3"/>
  <line x1="60" y1="-20" x2="80" y2="0" stroke="#3d2814" stroke-width="3"/>
  <line x1="20" y1="-50" x2="40" y2="-30" stroke="#3d2814" stroke-width="3"/>
  <!-- mrówki -->
  <g fill="#2c3e50">
    <ellipse cx="-200" cy="50" rx="6" ry="3"/>
    <ellipse cx="-188" cy="50" rx="4" ry="2"/>
    <ellipse cx="-180" cy="50" rx="6" ry="3"/>
    <ellipse cx="200" cy="55" rx="6" ry="3"/>
    <ellipse cx="212" cy="55" rx="4" ry="2"/>
    <ellipse cx="220" cy="55" rx="6" ry="3"/>
    <ellipse cx="-100" cy="20" rx="4" ry="2"/>
    <ellipse cx="50" cy="0" rx="4" ry="2"/>
  </g>
</g>
<text x="400" y="565" text-anchor="middle" font-family="Comic Sans MS" font-size="24" font-weight="bold" fill="#5a3a26">mrowisko</text>
</svg>