<svg xmlns="http://www.w3.org/2000/svg" viewBox="0 0 800 600">
<defs><linearGradient id="sky" x1="0" y1="0" x2="0" y2="1"><stop offset="0%" stop-color="#87ceeb"/><stop offset="100%" stop-color="#b8e6b8"/></linearGradient></defs><rect width="800" height="600" fill="url(#sky)"/><path d="M0,400 Q400,360 800,400 L800,600 L0,600 Z" fill="#6ab04c"/><ellipse cx="650" cy="120" rx="50" ry="50" fill="#ffe066"/><ellipse cx="650" cy="120" rx="38" ry="38" fill="#ffd93d"/>
<g transform="translate(400,420)">
  <ellipse cx="0" cy="-30" rx="120" ry="65" fill="#e74c3c"/>
  <ellipse cx="0" cy="-50" rx="100" ry="40" fill="#e74c3c"/>
  <!-- białe kropki -->
  <circle cx="-50" cy="-50" r="12" fill="#ffffff"/>
  <circle cx="40" cy="-60" r="14" fill="#ffffff"/>
  <circle cx="-20" cy="-30" r="10" fill="#ffffff"/>
  <circle cx="60" cy="-30" r="11" fill="#ffffff"/>
  <circle cx="-80" cy="-25" r="9" fill="#ffffff"/>
  <circle cx="0" cy="-70" r="10" fill="#ffffff"/>
  <!-- nóżka -->
  <rect x="-25" y="-20" width="50" height="100" fill="#ffffff" rx="6"/>
  <ellipse cx="0" cy="-15" rx="35" ry="8" fill="#ffffff"/>
  <ellipse cx="0" cy="80" rx="40" ry="10" fill="#4d8c2f"/>
</g>
<text x="400" y="565" text-anchor="middle" font-family="Comic Sans MS" font-size="24" font-weight="bold" fill="#5a3a26">muchomor czerwony - TRUJĄCY</text>
</svg>