<svg xmlns="http://www.w3.org/2000/svg" viewBox="0 0 800 600">
<defs><linearGradient id="sky" x1="0" y1="0" x2="0" y2="1"><stop offset="0%" stop-color="#87ceeb"/><stop offset="100%" stop-color="#b8e6b8"/></linearGradient></defs><rect width="800" height="600" fill="url(#sky)"/><rect y="350" width="800" height="250" fill="#6ab04c"/><path d="M0,350 Q200,330 400,350 T800,350 L800,400 L0,400 Z" fill="#4d8c2f"/>
<!-- kwiatek -->
<g transform="translate(250,380)">
  <rect x="-3" y="0" width="6" height="100" fill="#4d8c2f"/>
  <ellipse cx="-30" cy="50" rx="20" ry="8" fill="#6ab04c" transform="rotate(-30 -30 50)"/>
  <ellipse cx="30" cy="40" rx="18" ry="7" fill="#6ab04c" transform="rotate(30 30 40)"/>
  <circle cx="0" cy="0" r="35" fill="#ff7ca0"/>
  <circle cx="-25" cy="-15" r="20" fill="#ff7ca0"/>
  <circle cx="25" cy="-15" r="20" fill="#ff7ca0"/>
  <circle cx="-25" cy="15" r="20" fill="#ff7ca0"/>
  <circle cx="25" cy="15" r="20" fill="#ff7ca0"/>
  <circle cx="0" cy="0" r="18" fill="#ffd93d"/>
</g>
<!-- pszczoła -->
<g transform="translate(450,300)">
  <ellipse cx="0" cy="0" rx="60" ry="40" fill="#ffd93d"/>
  <rect x="-50" y="-15" width="100" height="12" fill="#2c3e50"/>
  <rect x="-50" y="5" width="100" height="12" fill="#2c3e50"/>
  <ellipse cx="-25" cy="-30" rx="35" ry="20" fill="#ffffff" opacity="0.7"/>
  <ellipse cx="25" cy="-30" rx="35" ry="20" fill="#ffffff" opacity="0.7"/>
  <circle cx="-50" cy="0" r="20" fill="#ffd93d"/>
  <circle cx="-58" cy="-5" r="4" fill="#2c3e50"/>
  <circle cx="-42" cy="-5" r="4" fill="#2c3e50"/>
  <line x1="-58" y1="-20" x2="-65" y2="-30" stroke="#2c3e50" stroke-width="3"/>
  <line x1="-42" y1="-20" x2="-35" y2="-30" stroke="#2c3e50" stroke-width="3"/>
  <circle cx="-65" cy="-30" r="3" fill="#2c3e50"/>
  <circle cx="-35" cy="-30" r="3" fill="#2c3e50"/>
</g>
<text x="400" y="565" text-anchor="middle" font-family="Comic Sans MS" font-size="24" font-weight="bold" fill="#5a3a26">pszczoła zbiera nektar</text>
</svg>