<svg xmlns="http://www.w3.org/2000/svg" viewBox="0 0 800 600">
<defs><linearGradient id="sky" x1="0" y1="0" x2="0" y2="1"><stop offset="0%" stop-color="#87ceeb"/><stop offset="100%" stop-color="#b8e6b8"/></linearGradient></defs><rect width="800" height="600" fill="url(#sky)"/><rect y="350" width="800" height="250" fill="#6ab04c"/><path d="M0,350 Q200,330 400,350 T800,350 L800,400 L0,400 Z" fill="#4d8c2f"/>
<rect y="380" width="800" height="220" fill="#ecf0f1"/>
<g fill="#5a3a26">
  <!-- 4 ślady -->
  <g transform="translate(150,420)">
    <ellipse cx="0" cy="0" rx="25" ry="35"/>
    <ellipse cx="-25" cy="-20" rx="10" ry="15"/>
    <ellipse cx="25" cy="-20" rx="10" ry="15"/>
    <ellipse cx="-20" cy="-40" rx="8" ry="12"/>
    <ellipse cx="20" cy="-40" rx="8" ry="12"/>
  </g>
  <g transform="translate(280,470)">
    <ellipse cx="0" cy="0" rx="25" ry="35"/>
    <ellipse cx="-25" cy="-20" rx="10" ry="15"/>
    <ellipse cx="25" cy="-20" rx="10" ry="15"/>
    <ellipse cx="-20" cy="-40" rx="8" ry="12"/>
    <ellipse cx="20" cy="-40" rx="8" ry="12"/>
  </g>
  <g transform="translate(420,420)">
    <ellipse cx="0" cy="0" rx="25" ry="35"/>
    <ellipse cx="-25" cy="-20" rx="10" ry="15"/>
    <ellipse cx="25" cy="-20" rx="10" ry="15"/>
    <ellipse cx="-20" cy="-40" rx="8" ry="12"/>
    <ellipse cx="20" cy="-40" rx="8" ry="12"/>
  </g>
  <g transform="translate(560,470)">
    <ellipse cx="0" cy="0" rx="25" ry="35"/>
    <ellipse cx="-25" cy="-20" rx="10" ry="15"/>
    <ellipse cx="25" cy="-20" rx="10" ry="15"/>
  </g>
  <g transform="translate(680,420)">
    <ellipse cx="0" cy="0" rx="20" ry="28"/>
    <ellipse cx="-20" cy="-15" rx="8" ry="12"/>
    <ellipse cx="20" cy="-15" rx="8" ry="12"/>
  </g>
</g>
<text x="400" y="565" text-anchor="middle" font-family="Comic Sans MS" font-size="24" font-weight="bold" fill="#5a3a26">tropy zwierzęcia</text>
</svg>