<svg xmlns="http://www.w3.org/2000/svg" viewBox="0 0 800 600">
<defs><linearGradient id="sky" x1="0" y1="0" x2="0" y2="1"><stop offset="0%" stop-color="#87ceeb"/><stop offset="100%" stop-color="#b8e6b8"/></linearGradient></defs><rect width="800" height="600" fill="url(#sky)"/><path d="M0,400 Q400,360 800,400 L800,600 L0,600 Z" fill="#6ab04c"/><ellipse cx="650" cy="120" rx="50" ry="50" fill="#ffe066"/><ellipse cx="650" cy="120" rx="38" ry="38" fill="#ffd93d"/><rect x="141.0" y="380" width="18.0" height="30.0" fill="#8b5a3c"/><circle cx="150" cy="350.0" r="48.0" fill="#4d8c2f"/><circle cx="120.0" cy="362.0" r="33.0" fill="#6ab04c"/><circle cx="180.0" cy="362.0" r="33.0" fill="#6ab04c"/><circle cx="150" cy="320.0" r="33.0" fill="#6ab04c"/>
<g transform="translate(420,380)">
  <!-- ogon -->
  <path d="M50,40 Q140,-30 110,-130 Q40,-100 0,-30 Z" fill="#e67e22"/>
  <path d="M70,30 Q120,-20 100,-110 Q60,-90 30,-30 Z" fill="#c0392b"/>
  <!-- ciało -->
  <ellipse cx="0" cy="20" rx="50" ry="60" fill="#e67e22"/>
  <ellipse cx="-5" cy="40" rx="30" ry="35" fill="#ffe066"/>
  <!-- głowa -->
  <circle cx="0" cy="-40" r="35" fill="#e67e22"/>
  <polygon points="-25,-65 -15,-80 -5,-65" fill="#c0392b"/>
  <polygon points="25,-65 15,-80 5,-65" fill="#c0392b"/>
  <circle cx="-12" cy="-45" r="5" fill="#2c3e50"/>
  <circle cx="12" cy="-45" r="5" fill="#2c3e50"/>
  <ellipse cx="0" cy="-30" rx="5" ry="3" fill="#2c3e50"/>
  <!-- żołądź w łapkach -->
  <ellipse cx="0" cy="20" rx="15" ry="12" fill="#ffd93d"/>
  <ellipse cx="0" cy="14" rx="14" ry="6" fill="#5a3a26"/>
</g>
<text x="400" y="565" text-anchor="middle" font-family="Comic Sans MS" font-size="24" font-weight="bold" fill="#5a3a26">wiewiórka z żołędziem</text>
</svg>