<svg xmlns="http://www.w3.org/2000/svg" viewBox="0 0 400 400">
<circle cx="200" cy="200" r="180" fill="#1a3a5c" stroke="#0d1d2e" stroke-width="12"/>

<g transform="translate(200,210)">
  <!-- ciało -->
  <ellipse cx="0" cy="20" rx="105" ry="120" fill="#8b5a3c" stroke="#3d2814" stroke-width="4"/>
  <ellipse cx="0" cy="50" rx="65" ry="60" fill="#d4a574"/>
  <!-- "uszy" -->
  <polygon points="-70,-95 -45,-130 -30,-90" fill="#5a3a26"/>
  <polygon points="70,-95 45,-130 30,-90" fill="#5a3a26"/>
  <!-- oczy -->
  <circle cx="-32" cy="-10" r="35" fill="white" stroke="#3d2814" stroke-width="3"/>
  <circle cx="32" cy="-10" r="35" fill="white" stroke="#3d2814" stroke-width="3"/>
  <circle cx="-32" cy="-10" r="22" fill="#ffd93d"/>
  <circle cx="32" cy="-10" r="22" fill="#ffd93d"/>
  <circle cx="-32" cy="-10" r="14" fill="#2c3e50"/>
  <circle cx="32" cy="-10" r="14" fill="#2c3e50"/>
  <circle cx="-28" cy="-14" r="4" fill="white"/>
  <circle cx="36" cy="-14" r="4" fill="white"/>
  <!-- dziób -->
  <polygon points="-12,25 0,55 12,25" fill="#ffd93d" stroke="#3d2814" stroke-width="2"/>
  <!-- pióra -->
  <circle cx="-30" cy="80" r="10" fill="#5a3a26" opacity="0.5"/>
  <circle cx="30" cy="80" r="10" fill="#5a3a26" opacity="0.5"/>
  <circle cx="0" cy="100" r="12" fill="#5a3a26" opacity="0.5"/>
</g>

</svg>